<?xml version="1.0" encoding="utf-8"?>
<!-- Generator: Adobe Illustrator 19.2.1, SVG Export Plug-In . SVG Version: 6.00 Build 0)  -->
<svg version="1.1" id="Layer_1" xmlns="http://www.w3.org/2000/svg" xmlns:xlink="http://www.w3.org/1999/xlink" x="0px" y="0px"
	 viewBox="0 0 279.4 55" style="enable-background:new 0 0 279.4 55;" xml:space="preserve">
<style type="text/css">
	.st0{fill:#003479;}
	.st1{fill:#FFFFFF;}
</style>
<path class="st0" d="M53,55H2c-1.1,0-2-0.9-2-2V2c0-1.1,0.9-2,2-2h51c1.1,0,2,0.9,2,2v51C55,54.1,54.1,55,53,55z"/>
<g>
	<path class="st1" d="M14,20v-5c0-1.1,0.9-2,2-2h5v7"/>
	<path class="st1" d="M14,27h7v14c0,0.5-0.5,1-1,1h-5c-0.6,0-1-0.5-1-1"/>
	<path class="st1" d="M28,13h13c0.5,0,1,0.4,1,1v6H28"/>
	<path class="st1" d="M41,34H28v-7h14v6C42,33.6,41.6,34,41,34z"/>
</g>
<g>
	<path class="st0" d="M76,13h7.7c6.1,0,9.8,3,9.8,8.4c0,5.9-4.2,8.9-10.5,8.9h-3.1V42H76V13z M83.5,16.5h-3.5v10.2h3.3
		c3.9,0,6.3-1.6,6.3-5.3C89.5,18.2,87.4,16.5,83.5,16.5z"/>
	<path class="st0" d="M109.3,42l-0.4-2.7c-1.6,1.6-3.8,3.1-7.1,3.1c-3.6,0-5.9-2.2-5.9-5.6c0-5,4.3-7,12.6-7.9v-0.8
		c0-2.5-1.5-3.4-3.8-3.4c-2.4,0-4.7,0.8-6.9,1.7l-0.5-3.2c2.4-1,4.7-1.7,7.8-1.7c4.9,0,7.2,2,7.2,6.4v14H109.3z M108.5,31.8
		c-7.4,0.7-8.9,2.7-8.9,4.8c0,1.6,1.1,2.7,3,2.7c2.2,0,4.3-1.1,6-2.8V31.8z"/>
	<path class="st0" d="M117.5,42V12.3l3.7-0.6V42H117.5z"/>
	<path class="st0" d="M135.4,42.1h-3.7l-7.1-19.9l3.8-0.6l5.1,15.8l5-15.5h3.9L135.4,42.1z"/>
	<path class="st0" d="M153.7,42.4c-5.2,0-9.3-3.2-9.3-10.5c0-6.4,3.8-10.4,8.8-10.4c5.8,0,8.5,4.5,8.5,10v0.8h-13.6
		c0.2,4.7,2.4,6.8,5.8,6.8c2.9,0,5-1.1,7.2-2.9l0.5,3.4C159.6,41.4,157,42.4,153.7,42.4z M148.3,29.6h9.7c-0.5-3.2-1.9-5.1-4.8-5.1
		C150.9,24.5,148.9,26.2,148.3,29.6z"/>
	<path class="st0" d="M166,42V12.3l3.7-0.6V42H166z"/>
	<path class="st0" d="M178.7,22v13.7c0,2.1,0.9,3.4,3.1,3.4c2,0,4-1.3,5.8-3.2V22h3.7v20h-3l-0.5-2.9c-1.9,1.8-4.3,3.3-7.1,3.3
		c-3.8,0-5.8-2.3-5.8-5.9V22H178.7z"/>
	<path class="st0" d="M205.1,42.1h-3.7l-7.1-19.9l3.8-0.6l5.1,15.8l5-15.5h3.9L205.1,42.1z"/>
	<path class="st0" d="M227.4,42l-0.4-2.7c-1.6,1.6-3.8,3.1-7.1,3.1c-3.6,0-5.9-2.2-5.9-5.6c0-5,4.3-7,12.6-7.9v-0.8
		c0-2.5-1.5-3.4-3.8-3.4c-2.4,0-4.7,0.8-6.9,1.7l-0.5-3.2c2.4-1,4.7-1.7,7.8-1.7c4.9,0,7.2,2,7.2,6.4v14H227.4z M226.7,31.8
		c-7.4,0.7-8.9,2.7-8.9,4.8c0,1.6,1.1,2.7,3,2.7c2.2,0,4.3-1.1,6-2.8V31.8z"/>
	<path class="st0" d="M235.2,49.5l-0.5-3.4c0.6,0.2,1.4,0.3,2,0.3c1.7,0,2.8-0.8,3.6-2.9l0.5-1.3l-7.3-19.8l3.8-0.6l5.4,15.9
		l5.2-15.6h3.9l-8.2,22.1c-1.6,4.5-3.8,5.5-6.8,5.5C236,49.6,235.6,49.6,235.2,49.5z"/>
	<path class="st0" d="M255.1,42V12.3l3.7-0.6V42H255.1z"/>
	<path class="st0" d="M276.3,42l-0.4-2.7c-1.6,1.6-3.8,3.1-7.1,3.1c-3.6,0-5.9-2.2-5.9-5.6c0-5,4.3-7,12.6-7.9v-0.8
		c0-2.5-1.5-3.4-3.8-3.4c-2.4,0-4.7,0.8-6.9,1.7l-0.5-3.2c2.4-1,4.7-1.7,7.8-1.7c4.9,0,7.2,2,7.2,6.4v14H276.3z M275.6,31.8
		c-7.4,0.7-8.9,2.7-8.9,4.8c0,1.6,1.1,2.7,3,2.7c2.2,0,4.3-1.1,6-2.8V31.8z"/>
</g>
<path class="st0" d="M219.1,17.7c-1.3,0-2.4-1-2.4-2.4c0-1.3,1.1-2.4,2.4-2.4c1.3,0,2.4,1.1,2.4,2.4
	C221.4,16.7,220.4,17.7,219.1,17.7z"/>
<path class="st0" d="M226.6,17.7c-1.3,0-2.4-1-2.4-2.4c0-1.3,1.1-2.4,2.4-2.4c1.3,0,2.4,1.1,2.4,2.4C229,16.7,227.9,17.7,226.6,17.7
	z"/>
<path class="st0" d="M268,17.7c-1.3,0-2.4-1-2.4-2.4c0-1.3,1.1-2.4,2.4-2.4c1.3,0,2.4,1.1,2.4,2.4C270.4,16.7,269.3,17.7,268,17.7z"
	/>
<path class="st0" d="M275.5,17.7c-1.3,0-2.4-1-2.4-2.4c0-1.3,1.1-2.4,2.4-2.4c1.3,0,2.4,1.1,2.4,2.4
	C277.9,16.7,276.8,17.7,275.5,17.7z"/>
</svg>
