<?xml version="1.0" encoding="utf-8"?>
<!-- Generator: Adobe Illustrator 19.2.1, SVG Export Plug-In . SVG Version: 6.00 Build 0)  -->
<svg version="1.1" id="Layer_1" xmlns="http://www.w3.org/2000/svg" xmlns:xlink="http://www.w3.org/1999/xlink" x="0px" y="0px"
	 viewBox="0 0 55 55" style="enable-background:new 0 0 55 55;" xml:space="preserve">
<style type="text/css">
	.st0{fill:#003479;}
	.st1{fill:#FFFFFF;}
</style>
<path class="st0" d="M53,0H2C0.9,0,0,0.9,0,2v51c0,1.1,0.9,2,2,2h51c1.1,0,2-0.9,2-2V2C55,0.9,54.1,0,53,0z"/>
<g>
	<path class="st1" d="M14,15v5h7v-7h-5C14.9,13,14,13.9,14,15z"/>
	<path class="st1" d="M14,41c0,0.5,0.4,1,1,1h5c0.6,0,1-0.5,1-1V27h-7V41z"/>
	<path class="st1" d="M41,13H28v7h14v-6C42,13.4,41.5,13,41,13z"/>
	<path class="st1" d="M28,34h13c0.6,0,1-0.4,1-1v-6H28V34z"/>
</g>
</svg>
